<svg width="34" height="34" viewBox="0 0 34 34" fill="none" xmlns="http://www.w3.org/2000/svg">
<path fill-rule="evenodd" clip-rule="evenodd" d="M24.5556 0H9.44444C4.22843 0 0 4.22843 0 9.44444V24.5556C0 29.7715 4.22843 34 9.44444 34H24.5556C29.7715 34 34 29.7715 34 24.5556V9.44444C34 4.22843 29.7715 0 24.5556 0ZM30.6944 24.5556C30.6841 27.9416 27.9416 30.6841 24.5556 30.6944H9.44444C6.05833 30.6841 3.31593 27.9416 3.30556 24.5556V9.44444C3.31593 6.05833 6.05833 3.31593 9.44444 3.30556H24.5556C27.9416 3.31593 30.6841 6.05833 30.6944 9.44444V24.5556ZM25.9722 9.91667C27.0155 9.91667 27.8611 9.07097 27.8611 8.02778C27.8611 6.98458 27.0155 6.13889 25.9722 6.13889C24.929 6.13889 24.0833 6.98458 24.0833 8.02778C24.0833 9.07097 24.929 9.91667 25.9722 9.91667ZM17 8.5C12.3056 8.5 8.5 12.3056 8.5 17C8.5 21.6945 12.3056 25.5 17 25.5C21.6945 25.5 25.5 21.6945 25.5 17C25.5051 14.7441 24.6111 12.5792 23.0159 10.984C21.4208 9.38889 19.2559 8.49498 17 8.5ZM11.8056 17C11.8056 19.8688 14.1312 22.1944 17 22.1944C19.8688 22.1944 22.1944 19.8688 22.1944 17C22.1944 14.1312 19.8688 11.8056 17 11.8056C14.1312 11.8056 11.8056 14.1312 11.8056 17Z" fill="white"/>
</svg>
