<svg width="34" height="33" viewBox="0 0 34 33" fill="none" xmlns="http://www.w3.org/2000/svg">
<path fill-rule="evenodd" clip-rule="evenodd" d="M24.5556 0H9.44444C4.22843 0 0 4.10406 0 9.16667V23.8333C0 28.8959 4.22843 33 9.44444 33H24.5556C29.7715 33 34 28.8959 34 23.8333V9.16667C34 4.10406 29.7715 0 24.5556 0ZM30.6944 23.8333C30.6841 27.1198 27.9416 29.7816 24.5556 29.7917H9.44444C6.05833 29.7816 3.31593 27.1198 3.30556 23.8333V9.16667C3.31593 5.88014 6.05833 3.2184 9.44444 3.20833H24.5556C27.9416 3.2184 30.6841 5.88014 30.6944 9.16667V23.8333ZM25.9722 9.625C27.0155 9.625 27.8611 8.80418 27.8611 7.79167C27.8611 6.77915 27.0155 5.95833 25.9722 5.95833C24.929 5.95833 24.0833 6.77915 24.0833 7.79167C24.0833 8.80418 24.929 9.625 25.9722 9.625ZM17 8.25C12.3056 8.25 8.5 11.9437 8.5 16.5C8.5 21.0564 12.3056 24.75 17 24.75C21.6945 24.75 25.5 21.0564 25.5 16.5C25.5051 14.3105 24.6111 12.2092 23.0159 10.661C21.4208 9.11275 19.2559 8.24512 17 8.25ZM11.8056 16.5C11.8056 19.2845 14.1312 21.5417 17 21.5417C19.8688 21.5417 22.1944 19.2845 22.1944 16.5C22.1944 13.7155 19.8688 11.4583 17 11.4583C14.1312 11.4583 11.8056 13.7155 11.8056 16.5Z" fill="#BFFD04"/>
</svg>
