<svg width="26" height="25" viewBox="0 0 26 25" fill="none" xmlns="http://www.w3.org/2000/svg">
<path fill-rule="evenodd" clip-rule="evenodd" d="M18.7778 0H7.22222C3.2335 0 0 3.10914 0 6.94444V18.0556C0 21.8908 3.2335 25 7.22222 25H18.7778C22.7665 25 26 21.8908 26 18.0556V6.94444C26 3.10914 22.7665 0 18.7778 0ZM23.4722 18.0556C23.4643 20.5453 21.3671 22.5618 18.7778 22.5694H7.22222C4.63284 22.5618 2.53571 20.5453 2.52778 18.0556V6.94444C2.53571 4.45465 4.63284 2.43818 7.22222 2.43056H18.7778C21.3671 2.43818 23.4643 4.45465 23.4722 6.94444V18.0556ZM19.8611 7.29167C20.6589 7.29167 21.3056 6.66983 21.3056 5.90278C21.3056 5.13572 20.6589 4.51389 19.8611 4.51389C19.0633 4.51389 18.4167 5.13572 18.4167 5.90278C18.4167 6.66983 19.0633 7.29167 19.8611 7.29167ZM13 6.25C9.41015 6.25 6.5 9.04822 6.5 12.5C6.5 15.9518 9.41015 18.75 13 18.75C16.5899 18.75 19.5 15.9518 19.5 12.5C19.5039 10.8412 18.8202 9.2494 17.6004 8.0765C16.3806 6.9036 14.7251 6.24631 13 6.25ZM9.02778 12.5C9.02778 14.6094 10.8062 16.3194 13 16.3194C15.1938 16.3194 16.9722 14.6094 16.9722 12.5C16.9722 10.3906 15.1938 8.68056 13 8.68056C10.8062 8.68056 9.02778 10.3906 9.02778 12.5Z" fill="white"/>
</svg>
