<svg width="23" height="23" viewBox="0 0 23 23" fill="none" xmlns="http://www.w3.org/2000/svg">
<path d="M16.2016 6.88396C16.2061 6.88396 16.2123 6.88396 16.2184 6.88396C16.378 6.88396 16.5261 6.9336 16.6475 7.01912L16.6452 7.0176C16.7338 7.09472 16.7934 7.20315 16.8079 7.32533V7.32762C16.8231 7.42078 16.8315 7.52769 16.8315 7.63689C16.8315 7.68652 16.83 7.73539 16.8262 7.78426V7.77739C16.6544 9.58639 15.9091 13.9733 15.5303 15.9984C15.37 16.856 15.0546 17.1431 14.7492 17.1706C14.0856 17.2324 13.5816 16.7323 12.9386 16.3108C11.9322 15.6502 11.3633 15.2394 10.3867 14.5957C9.25727 13.8527 9.98958 13.4426 10.6325 12.7752C10.8013 12.5996 13.7267 9.93841 13.784 9.69711C13.787 9.6826 13.7885 9.66657 13.7885 9.64977C13.7885 9.59021 13.7664 9.53599 13.7305 9.49475C13.6908 9.46879 13.6412 9.45428 13.5892 9.45428C13.5549 9.45428 13.522 9.46116 13.4915 9.47261L13.493 9.47185C13.3922 9.49475 11.7846 10.5572 8.67005 12.6592C8.33025 12.9272 7.9011 13.0967 7.43377 13.1166H7.42918C6.76713 13.0364 6.16617 12.889 5.59575 12.679L5.65226 12.6973C4.93599 12.4637 4.3671 12.3407 4.41597 11.9452C4.44193 11.7395 4.72549 11.529 5.26663 11.3137C8.60006 9.86129 10.8229 8.90397 11.9353 8.44173C13.1624 7.79037 14.585 7.25432 16.0809 6.90687L16.2008 6.8832L16.2016 6.88396ZM11.4733 0C5.13377 0.0152722 0 5.1582 0 11.5C0 17.851 5.14827 23 11.5 23C17.8517 23 23 17.8517 23 11.5C23 5.1582 17.8662 0.0152722 11.5283 0H11.5267C11.5089 0 11.4911 0 11.4733 0Z" fill="#0E0E0E"/>
</svg>
